<?xml version="1.0" encoding="utf-8"?>
<!-- Generator: Adobe Illustrator 16.0.0, SVG Export Plug-In . SVG Version: 6.00 Build 0)  -->
<!DOCTYPE svg PUBLIC "-//W3C//DTD SVG 1.1//EN" "http://www.w3.org/Graphics/SVG/1.1/DTD/svg11.dtd">
<svg version="1.1" id="Layer_1" xmlns="http://www.w3.org/2000/svg" xmlns:xlink="http://www.w3.org/1999/xlink" x="0px" y="0px"
	 width="269.291px" height="68.658px" viewBox="0 0 269.291 68.658" enable-background="new 0 0 269.291 68.658"
	 xml:space="preserve">
<g>
	<path fill-rule="evenodd" clip-rule="evenodd" d="M89.876,11.765c0,7.81,0,15.62,0,23.429v0.015v0.006l-0.02,1.293l-0.001,0.062
		l-0.023,0.064c-0.887,2.51-3.093,4.635-5.751,6.188c-3.033,1.771-6.67,2.809-9.593,2.826h-0.003
		c-2.922-0.018-6.559-1.055-9.592-2.826c-2.657-1.553-4.864-3.678-5.751-6.188l-0.023-0.064l-0.001-0.062l-0.02-1.293v-0.006v-0.015
		c0-7.81,0-15.619,0-23.429c2.956,0,5.913,0,8.869,0c0,7.84,0,15.68,0,23.52c0,0.684,0.088,1.682,0.465,2.676
		c0.263,0.695,0.669,1.391,1.286,1.98c0.507,0.484,1.162,0.898,2.002,1.186c0.76,0.258,1.672,0.412,2.765,0.42
		c0.001,0,0.002,0,0.003,0c1.093-0.008,2.004-0.162,2.764-0.42c0.841-0.287,1.497-0.703,2.004-1.186
		c0.617-0.59,1.022-1.285,1.286-1.98c0.377-0.994,0.465-1.992,0.465-2.676c0-7.84,0-15.68,0-23.52
		C83.964,11.765,86.92,11.765,89.876,11.765L89.876,11.765z M121.282,44.549c0-6.92,0.016-13.492,0.016-20.412
		c-2.493-4.607-8.571-4.896-13.031-4.801c-2.799,0.06-5.625,0.454-8.327,1.183c-1.388,0.374-2.591,0.852-3.479,1.437v0.001
		l-0.043,0.025l-0.173,0.116v0.212v0.046v22.192v0.086v0.393h0.384h0.083h6.938h0.083h0.384v-0.393v-0.086V23.921
		c1.321-0.704,3.062-0.937,4.557-0.917c2.582,0.035,4.838,1.238,4.735,4.848v16.696v0.086v0.393h0.384h0.083h6.938h0.083h0.384
		v-0.393V44.549L121.282,44.549z M249.327,44.549c0-7.482,0-14.966,0-22.45c0.959-0.635,1.99-1.104,3.082-1.456
		c1.164-0.376,2.468-0.661,3.825-0.857c1.448-0.21,2.956-0.32,4.417-0.333c1.562-0.015,3.674,0.093,5.22,0.309
		c0,1.572,0,2.85,0,4.422c-1.491-0.965-4.284-1.027-6.02-0.923c-0.964,0.058-1.925,0.246-2.706,0.662v20.627v0.086v0.393h-0.384
		h-0.083h-6.885h-0.083h-0.384v-0.393V44.549L249.327,44.549z M243.604,44.039c-2.565,1.207-5.794,1.662-8.627,1.662
		c-2.959,0.004-6.02-0.258-8.556-1.975l-0.001,0.002c-0.727-0.475-1.312-1.129-1.784-1.893c-0.463-0.75-0.813-1.6-1.079-2.486
		c-0.297-0.994-0.494-2.059-0.629-3.117c-0.464-3.644-0.383-7.74,0.918-11.183c1.49-3.948,5.046-5.243,8.88-5.418
		c0.425-0.02,0.88-0.028,1.373-0.028c0.48,0,0.939,0.014,1.374,0.042c3.115,0.198,6.575,1.244,8.182,4.226
		c1.507,2.791,1.183,6.678,1.183,9.705c-4.584,0-9.168,0-13.752,0c0.003,1.908-0.086,4.066,0.786,5.796
		c0.986,1.953,3.294,2.432,5.219,2.34c2.414-0.113,4.601-0.898,6.514-2.396C243.604,40.891,243.604,42.465,243.604,44.039
		L243.604,44.039z M231.085,28.119v1.703h5.775v-1.703c0-1.404-0.092-2.723-0.519-3.666c-0.457-1.011-1.314-1.497-2.376-1.497
		c-1.056,0-1.912,0.492-2.365,1.497C231.175,25.396,231.085,26.715,231.085,28.119L231.085,28.119z M214.29,23.506v15.433
		c0,2.174,0.721,2.682,1.845,2.682c0.519,0,1.125-0.09,1.782-0.189h0.002c0.106-0.016,0.181-0.027,0.396-0.059l0.437-0.062v0.451
		c0,0.496,0.001,0.994,0.001,1.49v1.492v0.334l-0.324,0.053l-0.07,0.01c-0.067,0.012-0.14,0.025-0.215,0.037
		c-1.432,0.236-4.043,0.67-6.297,0.471l0,0c-1.861-0.006-3.184-0.662-4.071-1.744c-0.997-1.217-1.418-2.961-1.418-4.914V23.506
		h-9.463v15.433c0,1.633,0.391,2.328,1.034,2.561c0.702,0.256,1.786,0.053,2.996-0.127l0.438-0.064v0.453v2.982v0.334l-0.324,0.053
		l-0.069,0.01c-0.534,0.088-0.167,0.029-0.32,0.055c-1.437,0.24-3.869,0.648-6.07,0.453l0,0c-2.286-0.006-3.692-0.73-4.536-1.943
		c-0.83-1.193-1.081-2.834-1.081-4.715V23.505c-1.621,0-3.243,0-4.864,0v-3.143l4.832,0.005l0.012-8.587c1.817,0,6.136,0,7.953,0
		c0,2.813-0.001,5.772-0.001,8.586l4.943-0.004l4.569,0.005v-8.591c1.815,0,6.069,0.003,7.884,0.003c0,2.812-0.001,5.77-0.001,8.583
		h7.118c0,1.392,0,1.752,0,3.144H214.29L214.29,23.506z M172.338,11.916c2.626,0,5.253,0,7.879,0c0,2.071,0,3.68,0,5.751
		c-2.626,0-5.253,0-7.879,0C172.338,15.596,172.338,13.987,172.338,11.916L172.338,11.916z M172.338,20.383c2.626,0,5.253,0,7.879,0
		c0,8.214,0,16.43,0,24.645c-2.626,0-5.253,0-7.879,0C172.338,36.812,172.338,28.598,172.338,20.383L172.338,20.383z
		 M154.918,11.954c1.889,0,3.639,0.181,5.172,0.542c1.516,0.357,2.821,0.891,3.843,1.598c1.188,0.822,1.99,1.81,2.51,2.926
		c0.516,1.108,0.747,2.334,0.796,3.646c0.044,1.186-0.191,2.266-0.627,3.209c-0.474,1.029-1.185,1.89-2.028,2.545
		c-0.693,0.539-1.404,1-2.227,1.381c-0.69,0.32-1.456,0.581-2.354,0.783l8.287,16.442c-2.886,0-5.772,0-8.658,0l-8.549-17.518
		c1.163,0.032,2.316,0.061,3.47-0.16c1.083-0.209,2.244-0.637,3.227-1.496c0.62-0.542,1.094-1.229,1.411-2.102
		c0.324-0.89,0.487-1.979,0.477-3.308c-0.009-1.167-0.176-2.146-0.559-2.956c-0.376-0.794-0.968-1.438-1.833-1.949
		c-1.22-0.722-3.221-0.7-5.576-0.676c-0.341,0.004-0.689,0.008-1.046,0.009h-0.002l0,0c0,10.052,0,20.104,0,30.156h-7.709
		l-0.01-33.074H154.918L154.918,11.954z M127.787,11.916c2.626,0,5.254,0,7.88,0c0,1.917,0,3.834,0,5.751c-2.626,0-5.253,0-7.88,0
		C127.787,15.75,127.787,13.833,127.787,11.916L127.787,11.916z M127.787,44.549c0-8.055,0-16.111,0-24.166c2.626,0,5.254,0,7.88,0
		c0,8.055,0,16.111,0,24.166v0.086v0.393h-0.384H135.2h-6.946h-0.083h-0.384v-0.393V44.549L127.787,44.549z"/>
	<path fill-rule="evenodd" clip-rule="evenodd" fill="#F0042A" d="M0,0h14.827c4.705,0,8.702,0.933,11.244,2.779
		c2.881,2.092,3.89,5.008,4.009,8.389c0.111,3.142-1.245,5.683-3.199,7.273c-1.724,1.403-3.514,2.392-6.289,2.945l10.553,21.958
		h-9.958L10.729,20.871c1.821,0.053,5.407,0.072,8.071-2.371c1.708-1.566,2.613-3.968,2.585-7.652
		c-0.025-3.276-0.913-5.543-3.301-7.024c-1.915-1.187-5.054-0.982-8.711-0.965H8.882v29.382c0,4.058,1.26,7.438,3.3,10.069
		c3.4,4.385,8.968,6.689,14.481,6.584c2.746-0.053,5.477-0.707,7.921-1.92c1.663-0.824,3.193-1.877,4.503-3.205l0.394-0.439h-4.687
		L24.093,21.609c5.573-0.944,9.621-5.375,9.398-11.122C33.239,3.961,29.42,1.159,22.993,0h4.081c4.051,0,7.83,0.654,10.497,2.823
		c2.235,1.818,3.394,3.349,3.757,7.317c0.292,3.188-0.558,6.112-2.681,8.167c-1.273,1.233-2.61,2.218-4.989,2.819l8.909,17.188
		l0.092-0.248c0.625-1.75,0.973-3.604,0.973-5.735V0h8.883l-0.014,36.537c-2.172,4.646-6.028,9.748-10.902,12.352
		c-4.437,2.371-9.718,3.666-15.34,3.465c-6.588,0-12.388-1.752-17.073-4.748c-3.882-2.482-7-7.014-9.169-10.912L0,0L0,0z"/>
	<path d="M0.377,68.459v-11.57h2.355v9.604h5.855v1.967H0.377L0.377,68.459z M11.923,62.588l-2.029-0.367
		c0.228-0.816,0.619-1.42,1.176-1.814c0.56-0.391,1.385-0.59,2.482-0.59c1,0,1.741,0.121,2.23,0.357
		c0.486,0.236,0.831,0.535,1.029,0.898c0.198,0.363,0.299,1.029,0.299,2.002l-0.025,2.609c0,0.742,0.036,1.291,0.109,1.643
		c0.07,0.352,0.207,0.73,0.402,1.133h-2.213c-0.057-0.148-0.13-0.369-0.215-0.66c-0.035-0.133-0.062-0.219-0.079-0.264
		c-0.383,0.373-0.791,0.65-1.225,0.838c-0.435,0.184-0.898,0.277-1.393,0.277c-0.869,0-1.556-0.236-2.056-0.707
		c-0.502-0.473-0.752-1.07-0.752-1.793c0-0.475,0.114-0.9,0.342-1.275c0.229-0.375,0.549-0.66,0.959-0.859
		c0.41-0.197,1.005-0.371,1.779-0.521c1.043-0.195,1.768-0.379,2.17-0.549v-0.223c0-0.432-0.106-0.734-0.318-0.92
		c-0.211-0.182-0.611-0.273-1.2-0.273c-0.399,0-0.709,0.078-0.932,0.234S12.061,62.193,11.923,62.588L11.923,62.588z M14.913,64.402
		c-0.286,0.094-0.739,0.209-1.361,0.342c-0.619,0.133-1.024,0.264-1.217,0.389c-0.291,0.209-0.438,0.469-0.438,0.787
		c0,0.314,0.117,0.584,0.351,0.812c0.233,0.229,0.53,0.342,0.891,0.342c0.405,0,0.788-0.133,1.154-0.396
		c0.272-0.201,0.448-0.447,0.533-0.742c0.06-0.189,0.087-0.553,0.087-1.088V64.402L14.913,64.402z M24.877,68.459v-1.266
		c-0.31,0.451-0.714,0.807-1.213,1.068c-0.503,0.258-1.033,0.389-1.589,0.389c-0.567,0-1.076-0.125-1.526-0.373
		c-0.451-0.25-0.777-0.6-0.98-1.051c-0.201-0.451-0.301-1.076-0.301-1.871V60.01h2.235v3.881c0,1.189,0.041,1.918,0.125,2.188
		c0.082,0.266,0.231,0.477,0.448,0.635s0.495,0.234,0.829,0.234c0.383,0,0.725-0.104,1.026-0.312
		c0.302-0.213,0.508-0.471,0.619-0.779c0.112-0.312,0.168-1.074,0.168-2.281V60.01h2.235v8.449H24.877L24.877,68.459z M31.41,68.459
		h-2.236V60.01h2.075v1.201c0.356-0.568,0.676-0.943,0.958-1.123c0.285-0.178,0.606-0.271,0.967-0.271c0.511,0,1,0.143,1.472,0.424
		l-0.692,1.947c-0.375-0.24-0.725-0.363-1.048-0.363c-0.315,0-0.579,0.084-0.796,0.258c-0.22,0.172-0.388,0.484-0.513,0.936
		c-0.125,0.449-0.187,1.395-0.187,2.832V68.459L31.41,68.459z M40.502,65.771l2.23,0.371c-0.288,0.818-0.739,1.439-1.358,1.865
		c-0.616,0.43-1.39,0.643-2.319,0.643c-1.469,0-2.556-0.479-3.262-1.441c-0.557-0.768-0.836-1.74-0.836-2.91
		c0-1.402,0.367-2.498,1.1-3.291c0.731-0.795,1.657-1.191,2.776-1.191c1.257,0,2.249,0.416,2.977,1.248
		c0.726,0.83,1.073,2.102,1.043,3.814h-5.603c0.016,0.664,0.195,1.18,0.54,1.547c0.345,0.369,0.777,0.553,1.29,0.553
		c0.351,0,0.644-0.094,0.883-0.285S40.383,66.193,40.502,65.771L40.502,65.771z M40.63,63.512c-0.016-0.65-0.182-1.141-0.5-1.479
		c-0.318-0.336-0.706-0.504-1.163-0.504c-0.489,0-0.891,0.178-1.208,0.533c-0.318,0.354-0.475,0.838-0.47,1.449H40.63L40.63,63.512z
		 M46.344,62.588l-2.029-0.367c0.229-0.816,0.619-1.42,1.176-1.814c0.559-0.391,1.385-0.59,2.482-0.59c1,0,1.741,0.121,2.229,0.357
		c0.486,0.236,0.831,0.535,1.029,0.898s0.299,1.029,0.299,2.002l-0.024,2.609c0,0.742,0.036,1.291,0.109,1.643
		c0.071,0.352,0.207,0.73,0.402,1.133h-2.213c-0.057-0.148-0.131-0.369-0.215-0.66c-0.035-0.133-0.062-0.219-0.079-0.264
		c-0.383,0.373-0.791,0.65-1.225,0.838c-0.435,0.184-0.899,0.277-1.394,0.277c-0.869,0-1.556-0.236-2.056-0.707
		c-0.503-0.473-0.753-1.07-0.753-1.793c0-0.475,0.114-0.9,0.343-1.275c0.228-0.375,0.548-0.66,0.958-0.859
		c0.41-0.197,1.005-0.371,1.779-0.521c1.043-0.195,1.768-0.379,2.17-0.549v-0.223c0-0.432-0.106-0.734-0.317-0.92
		c-0.212-0.182-0.611-0.273-1.201-0.273c-0.399,0-0.708,0.078-0.932,0.234C46.662,61.92,46.483,62.193,46.344,62.588L46.344,62.588z
		 M49.334,64.402c-0.285,0.094-0.739,0.209-1.36,0.342c-0.619,0.133-1.024,0.264-1.217,0.389c-0.291,0.209-0.438,0.469-0.438,0.787
		c0,0.314,0.117,0.584,0.351,0.812s0.529,0.342,0.891,0.342c0.405,0,0.788-0.133,1.154-0.396c0.272-0.201,0.448-0.447,0.533-0.742
		c0.06-0.189,0.086-0.553,0.086-1.088V64.402L49.334,64.402z M57.61,60.01v1.781h-1.527v3.406c0,0.689,0.014,1.092,0.044,1.207
		c0.03,0.113,0.095,0.205,0.198,0.281c0.104,0.074,0.231,0.111,0.378,0.111c0.209,0,0.508-0.072,0.901-0.215l0.19,1.732
		c-0.521,0.225-1.108,0.336-1.768,0.336c-0.402,0-0.766-0.068-1.089-0.201c-0.323-0.137-0.56-0.312-0.711-0.527
		c-0.152-0.215-0.255-0.506-0.315-0.873c-0.046-0.258-0.07-0.783-0.07-1.574v-3.684h-1.027V60.01h1.027v-1.682l2.243-1.303v2.984
		H57.61L57.61,60.01z M64.055,65.771l2.23,0.371c-0.288,0.818-0.739,1.439-1.358,1.865c-0.616,0.43-1.391,0.643-2.319,0.643
		c-1.469,0-2.556-0.479-3.262-1.441c-0.557-0.768-0.837-1.74-0.837-2.91c0-1.402,0.367-2.498,1.101-3.291
		c0.73-0.795,1.656-1.191,2.775-1.191c1.257,0,2.249,0.416,2.977,1.248c0.725,0.83,1.073,2.102,1.043,3.814h-5.603
		c0.016,0.664,0.196,1.18,0.541,1.547c0.345,0.369,0.777,0.553,1.29,0.553c0.351,0,0.644-0.094,0.883-0.285
		C63.754,66.502,63.936,66.193,64.055,65.771L64.055,65.771z M64.183,63.512c-0.016-0.65-0.182-1.141-0.5-1.479
		c-0.318-0.336-0.706-0.504-1.163-0.504c-0.489,0-0.891,0.178-1.208,0.533c-0.318,0.354-0.475,0.838-0.47,1.449H64.183
		L64.183,63.512z M72.697,68.459V56.795h2.354v11.664H72.697L72.697,68.459z M84.968,68.459h-2.235v-4.312
		c0-0.912-0.049-1.502-0.144-1.771c-0.095-0.266-0.253-0.475-0.468-0.625c-0.214-0.146-0.472-0.221-0.774-0.221
		c-0.388,0-0.736,0.105-1.043,0.316c-0.307,0.215-0.519,0.494-0.632,0.846c-0.114,0.35-0.171,0.996-0.171,1.941v3.826h-2.235V60.01
		h2.075v1.242c0.739-0.957,1.667-1.436,2.787-1.436c0.492,0,0.945,0.09,1.353,0.268c0.407,0.18,0.717,0.404,0.926,0.682
		s0.356,0.59,0.438,0.939c0.084,0.35,0.125,0.85,0.125,1.502V68.459L84.968,68.459z M91.108,60.01v1.781h-1.526v3.406
		c0,0.689,0.014,1.092,0.043,1.207c0.03,0.113,0.095,0.205,0.198,0.281c0.103,0.074,0.231,0.111,0.377,0.111
		c0.209,0,0.508-0.072,0.902-0.215l0.19,1.732c-0.521,0.225-1.108,0.336-1.768,0.336c-0.402,0-0.766-0.068-1.089-0.201
		c-0.323-0.137-0.56-0.312-0.712-0.527s-0.255-0.506-0.315-0.873c-0.046-0.258-0.07-0.783-0.07-1.574v-3.684h-1.027V60.01h1.027
		v-1.682l2.243-1.303v2.984H91.108L91.108,60.01z M97.553,65.771l2.23,0.371c-0.288,0.818-0.739,1.439-1.358,1.865
		c-0.616,0.43-1.391,0.643-2.319,0.643c-1.469,0-2.556-0.479-3.262-1.441c-0.557-0.768-0.836-1.74-0.836-2.91
		c0-1.402,0.367-2.498,1.1-3.291c0.73-0.795,1.656-1.191,2.775-1.191c1.258,0,2.249,0.416,2.977,1.248
		c0.726,0.83,1.073,2.102,1.043,3.814H94.3c0.016,0.664,0.195,1.18,0.54,1.547c0.345,0.369,0.777,0.553,1.29,0.553
		c0.351,0,0.644-0.094,0.883-0.285C97.252,66.502,97.434,66.193,97.553,65.771L97.553,65.771z M97.681,63.512
		c-0.017-0.65-0.182-1.141-0.5-1.479c-0.318-0.336-0.706-0.504-1.163-0.504c-0.489,0-0.891,0.178-1.208,0.533
		c-0.317,0.354-0.475,0.838-0.47,1.449H97.681L97.681,63.512z M103.865,68.459h-2.235V60.01h2.075v1.201
		c0.355-0.568,0.676-0.943,0.958-1.123c0.285-0.178,0.606-0.271,0.967-0.271c0.511,0,1,0.143,1.472,0.424l-0.692,1.947
		c-0.375-0.24-0.726-0.363-1.048-0.363c-0.315,0-0.579,0.084-0.796,0.258c-0.22,0.172-0.389,0.484-0.514,0.936
		c-0.125,0.449-0.187,1.395-0.187,2.832V68.459L103.865,68.459z M115.753,68.459h-2.235v-4.312c0-0.912-0.049-1.502-0.144-1.771
		c-0.096-0.266-0.253-0.475-0.468-0.625c-0.214-0.146-0.473-0.221-0.773-0.221c-0.389,0-0.736,0.105-1.043,0.316
		c-0.307,0.215-0.519,0.494-0.633,0.846c-0.114,0.35-0.171,0.996-0.171,1.941v3.826h-2.235V60.01h2.075v1.242
		c0.739-0.957,1.667-1.436,2.787-1.436c0.491,0,0.945,0.09,1.353,0.268c0.407,0.18,0.717,0.404,0.926,0.682
		c0.209,0.277,0.356,0.59,0.438,0.939c0.084,0.35,0.125,0.85,0.125,1.502V68.459L115.753,68.459z M119.691,62.588l-2.029-0.367
		c0.228-0.816,0.619-1.42,1.176-1.814c0.56-0.391,1.385-0.59,2.482-0.59c1,0,1.741,0.121,2.23,0.357
		c0.486,0.236,0.831,0.535,1.029,0.898c0.198,0.363,0.299,1.029,0.299,2.002l-0.024,2.609c0,0.742,0.035,1.291,0.108,1.643
		c0.071,0.352,0.207,0.73,0.402,1.133h-2.213c-0.057-0.148-0.13-0.369-0.214-0.66c-0.035-0.133-0.062-0.219-0.079-0.264
		c-0.383,0.373-0.79,0.65-1.225,0.838c-0.435,0.184-0.899,0.277-1.393,0.277c-0.87,0-1.557-0.236-2.056-0.707
		c-0.502-0.473-0.752-1.07-0.752-1.793c0-0.475,0.114-0.9,0.342-1.275s0.549-0.66,0.959-0.859c0.41-0.197,1.005-0.371,1.779-0.521
		c1.043-0.195,1.768-0.379,2.17-0.549v-0.223c0-0.432-0.106-0.734-0.318-0.92c-0.212-0.182-0.611-0.273-1.2-0.273
		c-0.399,0-0.709,0.078-0.932,0.234C120.009,61.92,119.83,62.193,119.691,62.588L119.691,62.588z M122.681,64.402
		c-0.285,0.094-0.739,0.209-1.361,0.342c-0.619,0.133-1.023,0.264-1.217,0.389c-0.291,0.209-0.437,0.469-0.437,0.787
		c0,0.314,0.117,0.584,0.35,0.812c0.234,0.229,0.53,0.342,0.891,0.342c0.405,0,0.788-0.133,1.154-0.396
		c0.271-0.201,0.449-0.447,0.533-0.742c0.06-0.189,0.087-0.553,0.087-1.088V64.402L122.681,64.402z M130.957,60.01v1.781h-1.526
		v3.406c0,0.689,0.014,1.092,0.043,1.207c0.03,0.113,0.095,0.205,0.198,0.281c0.104,0.074,0.231,0.111,0.377,0.111
		c0.209,0,0.508-0.072,0.902-0.215l0.19,1.732c-0.522,0.225-1.108,0.336-1.769,0.336c-0.402,0-0.766-0.068-1.089-0.201
		c-0.323-0.137-0.56-0.312-0.711-0.527c-0.152-0.215-0.255-0.506-0.315-0.873c-0.046-0.258-0.07-0.783-0.07-1.574v-3.684h-1.027
		V60.01h1.027v-1.682l2.243-1.303v2.984H130.957L130.957,60.01z M132.51,58.863v-2.068h2.235v2.068H132.51L132.51,58.863z
		 M132.51,68.459V60.01h2.235v8.449H132.51L132.51,68.459z M136.519,64.113c0-0.74,0.185-1.461,0.549-2.156
		c0.366-0.691,0.886-1.225,1.557-1.588c0.671-0.367,1.42-0.553,2.248-0.553c1.276,0,2.325,0.416,3.143,1.248
		c0.817,0.83,1.225,1.879,1.225,3.146c0,1.277-0.412,2.336-1.235,3.178c-0.826,0.842-1.863,1.262-3.115,1.262
		c-0.776,0-1.513-0.174-2.216-0.525c-0.704-0.35-1.239-0.863-1.605-1.539C136.703,65.908,136.519,65.086,136.519,64.113
		L136.519,64.113z M138.811,64.234c0,0.838,0.199,1.479,0.598,1.924c0.396,0.445,0.889,0.668,1.473,0.668s1.072-0.223,1.467-0.668
		c0.396-0.445,0.594-1.092,0.594-1.941c0-0.826-0.198-1.463-0.594-1.908c-0.395-0.445-0.883-0.67-1.467-0.67
		s-1.076,0.225-1.473,0.67C139.01,62.754,138.811,63.396,138.811,64.234L138.811,64.234z M154.678,68.459h-2.235v-4.312
		c0-0.912-0.049-1.502-0.144-1.771c-0.096-0.266-0.253-0.475-0.468-0.625c-0.215-0.146-0.473-0.221-0.774-0.221
		c-0.388,0-0.735,0.105-1.043,0.316c-0.307,0.215-0.519,0.494-0.633,0.846c-0.113,0.35-0.171,0.996-0.171,1.941v3.826h-2.235V60.01
		h2.075v1.242c0.739-0.957,1.668-1.436,2.787-1.436c0.491,0,0.944,0.09,1.353,0.268c0.407,0.18,0.717,0.404,0.926,0.682
		s0.355,0.59,0.438,0.939c0.084,0.35,0.125,0.85,0.125,1.502V68.459L154.678,68.459z M158.615,62.588l-2.028-0.367
		c0.228-0.816,0.619-1.42,1.176-1.814c0.56-0.391,1.385-0.59,2.482-0.59c0.999,0,1.741,0.121,2.229,0.357
		c0.486,0.236,0.831,0.535,1.029,0.898s0.299,1.029,0.299,2.002l-0.024,2.609c0,0.742,0.035,1.291,0.108,1.643
		c0.071,0.352,0.207,0.73,0.402,1.133h-2.214c-0.057-0.148-0.13-0.369-0.214-0.66c-0.036-0.133-0.062-0.219-0.079-0.264
		c-0.383,0.373-0.79,0.65-1.225,0.838c-0.435,0.184-0.899,0.277-1.394,0.277c-0.869,0-1.557-0.236-2.056-0.707
		c-0.503-0.473-0.753-1.07-0.753-1.793c0-0.475,0.114-0.9,0.343-1.275c0.228-0.375,0.549-0.66,0.958-0.859
		c0.41-0.197,1.005-0.371,1.779-0.521c1.043-0.195,1.768-0.379,2.17-0.549v-0.223c0-0.432-0.105-0.734-0.317-0.92
		c-0.212-0.182-0.611-0.273-1.2-0.273c-0.399,0-0.709,0.078-0.932,0.234S158.754,62.193,158.615,62.588L158.615,62.588z
		 M161.605,64.402c-0.285,0.094-0.738,0.209-1.36,0.342c-0.619,0.133-1.024,0.264-1.217,0.389c-0.291,0.209-0.438,0.469-0.438,0.787
		c0,0.314,0.117,0.584,0.351,0.812s0.529,0.342,0.891,0.342c0.404,0,0.788-0.133,1.154-0.396c0.271-0.201,0.448-0.447,0.532-0.742
		c0.061-0.189,0.087-0.553,0.087-1.088V64.402L161.605,64.402z M166.009,68.459V56.795h2.234v11.664H166.009L166.009,68.459z
		 M175.063,56.795h2.354v6.316c0,1.002,0.029,1.654,0.087,1.951c0.101,0.477,0.342,0.859,0.72,1.148
		c0.38,0.291,0.898,0.434,1.557,0.434c0.667,0,1.173-0.135,1.512-0.41c0.34-0.271,0.544-0.607,0.611-1.004
		c0.07-0.398,0.104-1.061,0.104-1.982v-6.453h2.354v6.127c0,1.4-0.062,2.391-0.19,2.969c-0.127,0.578-0.36,1.064-0.703,1.463
		c-0.342,0.396-0.801,0.715-1.371,0.951c-0.573,0.236-1.323,0.354-2.246,0.354c-1.114,0-1.958-0.129-2.534-0.387
		s-1.029-0.592-1.363-1.002s-0.554-0.842-0.66-1.293c-0.154-0.668-0.23-1.654-0.23-2.959V56.795L175.063,56.795z M194.518,68.459
		h-2.235v-4.312c0-0.912-0.049-1.502-0.144-1.771c-0.096-0.266-0.253-0.475-0.468-0.625c-0.214-0.146-0.473-0.221-0.773-0.221
		c-0.389,0-0.736,0.105-1.044,0.316c-0.307,0.215-0.519,0.494-0.632,0.846c-0.114,0.35-0.171,0.996-0.171,1.941v3.826h-2.236V60.01
		h2.075v1.242c0.739-0.957,1.668-1.436,2.787-1.436c0.491,0,0.945,0.09,1.353,0.268c0.407,0.18,0.717,0.404,0.926,0.682
		s0.355,0.59,0.438,0.939c0.084,0.35,0.125,0.85,0.125,1.502V68.459L194.518,68.459z M196.785,58.863v-2.068h2.235v2.068H196.785
		L196.785,58.863z M196.785,68.459V60.01h2.235v8.449H196.785L196.785,68.459z M203.635,68.459l-3.406-8.449h2.347l1.592,4.312
		l0.462,1.439c0.122-0.365,0.201-0.607,0.23-0.725c0.076-0.238,0.155-0.479,0.239-0.715l1.608-4.312h2.3l-3.359,8.449H203.635
		L203.635,68.459z M215.267,65.771l2.23,0.371c-0.288,0.818-0.739,1.439-1.358,1.865c-0.616,0.43-1.391,0.643-2.319,0.643
		c-1.47,0-2.556-0.479-3.262-1.441c-0.557-0.768-0.837-1.74-0.837-2.91c0-1.402,0.367-2.498,1.101-3.291
		c0.73-0.795,1.656-1.191,2.775-1.191c1.258,0,2.249,0.416,2.977,1.248c0.726,0.83,1.073,2.102,1.043,3.814h-5.603
		c0.016,0.664,0.195,1.18,0.54,1.547c0.345,0.369,0.776,0.553,1.29,0.553c0.351,0,0.644-0.094,0.883-0.285
		S215.147,66.193,215.267,65.771L215.267,65.771z M215.395,63.512c-0.017-0.65-0.182-1.141-0.5-1.479
		c-0.317-0.336-0.706-0.504-1.162-0.504c-0.489,0-0.891,0.178-1.209,0.533c-0.317,0.354-0.475,0.838-0.47,1.449H215.395
		L215.395,63.512z M221.579,68.459h-2.235V60.01h2.075v1.201c0.355-0.568,0.676-0.943,0.958-1.123
		c0.285-0.178,0.606-0.271,0.967-0.271c0.511,0,1,0.143,1.473,0.424l-0.692,1.947c-0.375-0.24-0.726-0.363-1.049-0.363
		c-0.315,0-0.578,0.084-0.796,0.258c-0.22,0.172-0.388,0.484-0.513,0.936c-0.125,0.449-0.188,1.395-0.188,2.832V68.459
		L221.579,68.459z M224.993,66.047l2.243-0.342c0.095,0.436,0.288,0.766,0.581,0.992c0.291,0.225,0.698,0.34,1.225,0.34
		c0.579,0,1.014-0.107,1.304-0.322c0.199-0.146,0.296-0.346,0.296-0.594c0-0.172-0.054-0.312-0.16-0.424
		c-0.111-0.105-0.36-0.203-0.746-0.293c-1.804-0.396-2.947-0.762-3.431-1.09c-0.668-0.455-1.002-1.092-1.002-1.904
		c0-0.73,0.288-1.346,0.866-1.844c0.578-0.5,1.475-0.75,2.688-0.75c1.157,0,2.019,0.191,2.58,0.566
		c0.562,0.377,0.948,0.934,1.16,1.672l-2.107,0.389c-0.09-0.328-0.261-0.58-0.514-0.754c-0.252-0.178-0.611-0.264-1.078-0.264
		c-0.59,0-1.01,0.08-1.266,0.246c-0.168,0.117-0.253,0.27-0.253,0.455c0,0.158,0.073,0.293,0.223,0.404
		c0.201,0.148,0.896,0.357,2.089,0.629c1.189,0.27,2.021,0.6,2.493,0.994c0.468,0.4,0.701,0.953,0.701,1.662
		c0,0.775-0.323,1.443-0.973,2c-0.646,0.557-1.603,0.834-2.871,0.834c-1.151,0-2.061-0.234-2.734-0.701
		C225.637,67.484,225.199,66.85,224.993,66.047L224.993,66.047z M234.844,58.863v-2.068h2.235v2.068H234.844L234.844,58.863z
		 M234.844,68.459V60.01h2.235v8.449H234.844L234.844,68.459z M243.244,60.01v1.781h-1.526v3.406c0,0.689,0.014,1.092,0.043,1.207
		c0.03,0.113,0.096,0.205,0.198,0.281c0.104,0.074,0.231,0.111,0.378,0.111c0.209,0,0.508-0.072,0.901-0.215l0.19,1.732
		c-0.521,0.225-1.108,0.336-1.769,0.336c-0.401,0-0.766-0.068-1.089-0.201c-0.323-0.137-0.56-0.312-0.711-0.527
		c-0.152-0.215-0.256-0.506-0.315-0.873c-0.047-0.258-0.07-0.783-0.07-1.574v-3.684h-1.027V60.01h1.027v-1.682l2.243-1.303v2.984
		H243.244L243.244,60.01z M244.798,58.863v-2.068h2.235v2.068H244.798L244.798,58.863z M244.798,68.459V60.01h2.235v8.449H244.798
		L244.798,68.459z M254.217,65.771l2.229,0.371c-0.288,0.818-0.739,1.439-1.358,1.865c-0.616,0.43-1.391,0.643-2.319,0.643
		c-1.469,0-2.556-0.479-3.262-1.441c-0.557-0.768-0.837-1.74-0.837-2.91c0-1.402,0.367-2.498,1.101-3.291
		c0.73-0.795,1.656-1.191,2.775-1.191c1.258,0,2.249,0.416,2.977,1.248c0.726,0.83,1.073,2.102,1.043,3.814h-5.603
		c0.016,0.664,0.195,1.18,0.54,1.547c0.345,0.369,0.777,0.553,1.29,0.553c0.351,0,0.644-0.094,0.883-0.285
		S254.097,66.193,254.217,65.771L254.217,65.771z M254.344,63.512c-0.017-0.65-0.182-1.141-0.5-1.479
		c-0.317-0.336-0.706-0.504-1.162-0.504c-0.488,0-0.891,0.178-1.208,0.533c-0.318,0.354-0.476,0.838-0.471,1.449H254.344
		L254.344,63.512z M257.601,66.047l2.243-0.342c0.095,0.436,0.288,0.766,0.581,0.992c0.291,0.225,0.698,0.34,1.226,0.34
		c0.578,0,1.013-0.107,1.303-0.322c0.198-0.146,0.297-0.346,0.297-0.594c0-0.172-0.055-0.312-0.16-0.424
		c-0.112-0.105-0.362-0.203-0.747-0.293c-1.804-0.396-2.947-0.762-3.431-1.09c-0.668-0.455-1.002-1.092-1.002-1.904
		c0-0.73,0.288-1.346,0.866-1.844c0.579-0.5,1.475-0.75,2.688-0.75c1.157,0,2.019,0.191,2.58,0.566
		c0.562,0.377,0.948,0.934,1.16,1.672l-2.107,0.389c-0.09-0.328-0.261-0.58-0.514-0.754c-0.252-0.178-0.611-0.264-1.078-0.264
		c-0.589,0-1.01,0.08-1.266,0.246c-0.168,0.117-0.253,0.27-0.253,0.455c0,0.158,0.074,0.293,0.224,0.404
		c0.2,0.148,0.896,0.357,2.088,0.629c1.189,0.27,2.021,0.6,2.493,0.994c0.468,0.4,0.701,0.953,0.701,1.662
		c0,0.775-0.323,1.443-0.973,2c-0.646,0.557-1.603,0.834-2.87,0.834c-1.152,0-2.062-0.234-2.735-0.701
		C258.244,67.484,257.807,66.85,257.601,66.047L257.601,66.047z"/>
	<path d="M266.933,60.236V58.5h0.738c0.186,0,0.32,0.016,0.404,0.047s0.151,0.086,0.202,0.166s0.075,0.17,0.075,0.273
		c0,0.131-0.038,0.238-0.114,0.322s-0.191,0.139-0.344,0.16c0.076,0.045,0.138,0.094,0.188,0.146
		c0.049,0.053,0.114,0.146,0.198,0.281l0.213,0.34h-0.42l-0.253-0.379c-0.09-0.135-0.151-0.221-0.185-0.254
		c-0.033-0.037-0.068-0.061-0.105-0.074c-0.038-0.012-0.096-0.018-0.177-0.018h-0.071v0.725H266.933L266.933,60.236z
		 M267.283,59.234h0.26c0.168,0,0.273-0.008,0.315-0.021s0.074-0.039,0.098-0.074s0.035-0.078,0.035-0.131
		c0-0.057-0.016-0.105-0.046-0.141c-0.031-0.035-0.075-0.059-0.133-0.068c-0.027-0.004-0.113-0.006-0.256-0.006h-0.273V59.234
		L267.283,59.234z"/>
	<path fill-rule="evenodd" clip-rule="evenodd" d="M267.555,57.65c0.959,0,1.736,0.777,1.736,1.736s-0.777,1.738-1.736,1.738
		s-1.737-0.779-1.737-1.738S266.596,57.65,267.555,57.65L267.555,57.65z M267.555,58.105c0.707,0,1.281,0.574,1.281,1.281
		s-0.574,1.281-1.281,1.281c-0.708,0-1.282-0.574-1.282-1.281S266.847,58.105,267.555,58.105L267.555,58.105z"/>
</g>
</svg>
